<svg width="64" height="64" viewBox="0 0 64 64" fill="none" xmlns="http://www.w3.org/2000/svg">
<rect width="64" height="64" fill="#EBEAE1"/>
<path d="M37 32.5081V43.25C37 44.7687 35.8094 46 34.3156 46H22.6875C21.1906 46 20 44.7687 20 43.25V26.75C20.0043 26.022 20.2954 25.325 20.8102 24.8102C21.325 24.2954 22.022 24.0043 22.75 24H28.6325C28.8361 24.0003 29.0376 24.0411 29.2253 24.1201C29.413 24.1991 29.5831 24.3146 29.7256 24.46L36.5475 31.3975C36.8377 31.6943 37.0002 32.093 37 32.5081Z" stroke="#9C998E" stroke-width="2" stroke-linejoin="round"/>
<path d="M28.5 24V30.75C28.5055 31.2124 28.6917 31.6543 29.0187 31.9813C29.3457 32.3083 29.7876 32.4945 30.25 32.5H37" stroke="#9C998E" stroke-width="2" stroke-linecap="round" stroke-linejoin="round"/>
<path d="M27 24V20.75C27.0043 20.022 27.2954 19.325 27.8102 18.8102C28.325 18.2954 29.022 18.0043 29.75 18H35.625C35.8297 18.0003 36.0324 18.0411 36.2213 18.12C36.4102 18.199 36.5816 18.3145 36.7256 18.46L43.5475 25.3975C43.8375 25.6912 44.0001 26.0873 44 26.5V37.25C44 38.7687 42.8094 40 41.3156 40H37.5" stroke="#9C998E" stroke-width="2" stroke-linejoin="round"/>
<path d="M35.5 18V24.75C35.5055 25.2124 35.6917 25.6543 36.0187 25.9813C36.3457 26.3083 36.7876 26.4945 37.25 26.5H44" stroke="#9C998E" stroke-width="2" stroke-linecap="round" stroke-linejoin="round"/>
</svg>
