<svg width="64" height="64" viewBox="0 0 64 64" fill="none" xmlns="http://www.w3.org/2000/svg">
<rect width="64" height="64" fill="#EBEAE1"/>
<rect x="26.5808" y="8.1761" width="23.9094" height="31.6222" rx="4.242" fill="#EBEAE1"/>
<rect x="26.5808" y="8.1761" width="23.9094" height="31.6222" rx="4.242" stroke="#EBEAE1" stroke-width="2.31382"/>
<path d="M27.7377 12.4181C27.7377 10.7142 29.1189 9.33301 30.8228 9.33301H32.3653C34.0692 9.33301 35.4504 10.7142 35.4504 12.4181V20.1308C35.4504 21.8347 36.8317 23.2159 38.5355 23.2159H46.2482C47.9521 23.2159 49.3333 24.5971 49.3333 26.301V35.5563C49.3333 37.2601 47.9521 38.6413 46.2482 38.6413H30.8228C29.1189 38.6413 27.7377 37.2601 27.7377 35.5563V12.4181Z" fill="#C8C7BC"/>
<path d="M37.2213 11.2113C37.2213 9.83708 38.8828 9.14884 39.8546 10.1206L48.2273 18.4934C49.1991 19.4651 48.5109 21.1266 47.1366 21.1266H38.7638C37.9119 21.1266 37.2213 20.436 37.2213 19.5841V11.2113Z" fill="#C8C7BC"/>
<path d="M13.1241 27.4372C13.1241 24.8814 15.196 22.8096 17.7518 22.8096H26.6328C27.8601 22.8096 29.0371 23.2971 29.905 24.165L36.4495 30.7094C37.3173 31.5773 37.8049 32.7543 37.8049 33.9817V50.5754C37.8049 53.1311 35.733 55.203 33.1772 55.203H17.7518C15.196 55.203 13.1241 53.1311 13.1241 50.5754V27.4372Z" fill="#EBEAE1"/>
<path d="M14.6667 27.4396C14.6667 25.7357 16.0479 24.3545 17.7517 24.3545H19.2943C20.9981 24.3545 22.3794 25.7357 22.3794 27.4396V35.1523C22.3794 36.8562 23.7606 38.2374 25.4645 38.2374H33.1772C34.881 38.2374 36.2623 39.6186 36.2623 41.3225V50.5777C36.2623 52.2816 34.881 53.6628 33.1772 53.6628H17.7517C16.0479 53.6628 14.6667 52.2816 14.6667 50.5777V27.4396Z" fill="#C8C7BC"/>
<path d="M24.7186 25.9867C24.7186 24.6125 26.3801 23.9242 27.3519 24.896L35.7246 33.2687C36.6964 34.2405 36.0082 35.902 34.6339 35.902H26.2611C25.4092 35.902 24.7186 35.2114 24.7186 34.3595V25.9867Z" fill="#C8C7BC"/>
</svg>
