<svg width="48" height="48" viewBox="0 0 48 48" fill="none" xmlns="http://www.w3.org/2000/svg">
<rect width="48" height="48" fill="#EBEAE1"/>
<path d="M27.75 24.3811V32.4375C27.75 33.5766 26.857 34.5 25.7367 34.5H17.0156C15.893 34.5 15 33.5766 15 32.4375V20.0625C15.0032 19.5165 15.2215 18.9937 15.6076 18.6076C15.9937 18.2215 16.5165 18.0032 17.0625 18H21.4744C21.6271 18.0002 21.7782 18.0309 21.919 18.0901C22.0597 18.1493 22.1873 18.236 22.2942 18.345L27.4106 23.5481C27.6283 23.7707 27.7501 24.0697 27.75 24.3811Z" stroke="#9C998E" stroke-width="1.5" stroke-linejoin="round"/>
<path d="M21.375 18V23.0625C21.3791 23.4093 21.5187 23.7408 21.764 23.986C22.0092 24.2313 22.3407 24.3709 22.6875 24.375H27.75" stroke="#9C998E" stroke-width="1.5" stroke-linecap="round" stroke-linejoin="round"/>
<path d="M20.25 18V15.5625C20.2532 15.0165 20.4715 14.4937 20.8576 14.1076C21.2437 13.7215 21.7665 13.5032 22.3125 13.5H26.7188C26.8723 13.5002 27.0243 13.5308 27.166 13.59C27.3076 13.6492 27.4362 13.7359 27.5442 13.845L32.6606 19.0481C32.8781 19.2684 33 19.5655 33 19.875V27.9375C33 29.0766 32.107 30 30.9867 30H28.125" stroke="#9C998E" stroke-width="1.5" stroke-linejoin="round"/>
<path d="M26.625 13.5V18.5625C26.6291 18.9093 26.7687 19.2408 27.014 19.486C27.2592 19.7313 27.5907 19.8709 27.9375 19.875H33" stroke="#9C998E" stroke-width="1.5" stroke-linecap="round" stroke-linejoin="round"/>
</svg>
