<svg width="64" height="64" viewBox="0 0 64 64" fill="none" xmlns="http://www.w3.org/2000/svg">
<path d="M24.3104 32.7127L24.3104 32.7127L31.2873 32.7126L31.2873 39.6896L31.2873 39.6896C31.2873 40.0831 31.6064 40.4022 32 40.4022L32 40.4022C32.3936 40.4022 32.7126 40.0832 32.7126 39.6896L32.7126 32.7127L39.6896 32.7126C40.0832 32.7126 40.4022 32.3936 40.4022 32C40.4022 31.6064 40.0831 31.2873 39.6895 31.2873L32.7126 31.2873L32.7126 24.3104C32.7126 23.9168 32.3936 23.5978 32 23.5978C31.6064 23.5978 31.2874 23.9168 31.2874 24.3104L31.2873 31.2873L24.3104 31.2874C24.3104 31.2874 24.3104 31.2874 24.3104 31.2874C23.9168 31.2873 23.5978 31.6064 23.5978 32C23.5978 32.3936 23.9168 32.7126 24.3104 32.7127Z" fill="#9C998E" stroke="#9C998E" stroke-width="0.3"/>
</svg>
